<?xml version="1.0" encoding="UTF-8" standalone="no"?>
<!DOCTYPE svg PUBLIC "-//W3C//DTD SVG 20010904//EN"
"http://www.w3.org/TR/2001/REC-SVG-20010904/DTD/svg10.dtd">
<!-- Created with Sodipodi ("http://www.sodipodi.com/") -->
<svg
   id="svg548"
   sodipodi:version="0.32"
   width="256pt"
   height="256pt"
   sodipodi:docbase="/home/will/Documents/kde_stuff/"
   sodipodi:docname="/home/will/Documents/kde_stuff/kimdaba.svg"
   xmlns="http://www.w3.org/2000/svg"
   xmlns:sodipodi="http://sodipodi.sourceforge.net/DTD/sodipodi-0.dtd"
   xmlns:xlink="http://www.w3.org/1999/xlink">
  <defs
     id="defs550">
    <linearGradient
       id="linearGradient674">
      <stop
         offset="0.000000"
         style="stop-color:#00b705;stop-opacity:1;"
         id="stop676" />
      <stop
         offset="1.000000"
         style="stop-color:#a7ff5d;stop-opacity:1;"
         id="stop675" />
    </linearGradient>
    <linearGradient
       id="linearGradient630">
      <stop
         style="stop-color:#eecd00;stop-opacity:1;"
         offset="0.000000"
         id="stop631" />
      <stop
         style="stop-color:#ffffff;stop-opacity:1;"
         offset="1.000000"
         id="stop632" />
    </linearGradient>
    <linearGradient
       id="linearGradient555">
      <stop
         style="stop-color:#000;stop-opacity:1;"
         offset="0"
         id="stop556" />
      <stop
         style="stop-color:#fff;stop-opacity:1;"
         offset="1"
         id="stop557" />
    </linearGradient>
    <linearGradient
       xlink:href="#linearGradient630"
       id="linearGradient558"
       x1="0.83908045"
       y1="1.00000000"
       x2="0.49808428"
       y2="0.26315802"
       gradientUnits="objectBoundingBox"
       spreadMethod="pad" />
    <linearGradient
       xlink:href="#linearGradient674"
       id="linearGradient673"
       x1="0.50322872"
       y1="0.03124820"
       x2="0.50322574"
       y2="0.96875024"
       gradientUnits="objectBoundingBox"
       spreadMethod="pad" />
  </defs>
  <sodipodi:namedview
     id="base"
     showgrid="true"
     snaptogrid="false" />
  <rect
     style="font-size:12;fill:#393939;fill-rule:evenodd;stroke-width:1pt;fill-opacity:1;"
     id="rect567"
     width="185.694992"
     height="185.694992"
     x="26.903433"
     y="28.005791" />
  <rect
     style="font-size:12;fill:#fcfaff;fill-rule:evenodd;stroke-width:1pt;"
     id="rect574"
     width="79.068237"
     height="65.840446"
     x="115.645409"
     y="135.133972" />
  <rect
     style="font-size:12;fill:url(#linearGradient673);fill-rule:evenodd;stroke-width:1pt;"
     id="rect575"
     width="65.764099"
     height="54.762028"
     x="122.565300"
     y="140.557663" />
  <path
     style="font-size:12;fill:#fff6c9;fill-rule:evenodd;stroke-width:1pt;"
     d="M 71.2551 187.854 L 71.2551 207.287 L 91.552 207.288 L 71.2551 187.854 z "
     id="path576"
     sodipodi:nodetypes="cccc"
     transform="matrix(-1.000000,0.000000,0.000000,1.000000,271.7618,0.512009)" />
  <path
     style="font-size:12;fill:#fff6c9;fill-rule:evenodd;stroke-width:1pt;"
     d="M 71.2551 187.854 L 71.2551 207.287 L 91.552 207.288 L 71.2551 187.854 z "
     id="path578"
     sodipodi:nodetypes="cccc"
     transform="matrix(-6.124136e-17,1.000000,1.000180,6.123032e-17,-6.815498,57.98038)" />
  <path
     style="font-size:12;fill:#fff6c9;fill-rule:evenodd;stroke-width:1pt;"
     d="M 71.2551 187.854 L 71.2551 207.287 L 91.552 207.288 L 71.2551 187.854 z "
     id="path579"
     sodipodi:nodetypes="cccc"
     transform="matrix(6.124135e-17,1.000000,-1.000180,6.123032e-17,316.7107,57.63969)" />
  <path
     style="font-size:12;fill:#fff6c9;fill-rule:evenodd;stroke-width:1pt;"
     d="M 71.2551 187.854 L 71.2551 207.287 L 91.552 207.288 L 71.2551 187.854 z "
     id="path583"
     sodipodi:nodetypes="cccc"
     transform="translate(37.21720,0.512009)" />
  <path
     style="fill:#acacac;fill-rule:evenodd;stroke:none;stroke-opacity:1;stroke-width:1pt;stroke-linejoin:miter;stroke-linecap:butt;fill-opacity:1;"
     d="M 26.7946 213.701 L 44.9431 231.417 L 230.319 231.417 L 212.598 213.701 L 26.7946 213.701 z "
     id="path614"
     sodipodi:nodetypes="ccccc"
     transform="matrix(0.999778,0.000000,0.000000,1.000006,4.723946e-2,-1.487732e-3)" />
  <path
     style="fill:#eeeeee;fill-rule:evenodd;stroke:none;stroke-opacity:1;stroke-width:1pt;stroke-linejoin:miter;stroke-linecap:butt;fill-opacity:1;"
     d="M 26.7946 213.701 L 46.2389 231.417 L 230.32 231.417 L 212.598 213.701 L 26.7946 213.701 z "
     id="path615"
     sodipodi:nodetypes="ccccc"
     transform="matrix(-6.121673e-17,0.999778,1.000006,6.123068e-17,-1.103859,1.148930)" />
  <g
     id="g642"
     transform="translate(-120.4858,-63.04993)">
    <path
       style="font-size:12;fill:#a56032;fill-rule:evenodd;stroke-width:1pt;"
       d="M 27.9563 291.545 C 27.9563 290.535 37.4743 229.98 42.9329 223.651 C 46.2952 219.818 48.7219 219.257 54.9142 223.65 C 59.4725 229.211 70.5443 290.237 69.8908 291.544 C 67.2283 291.544 29.9515 291.212 27.9563 291.545 z "
       id="path554"
       sodipodi:nodetypes="ccccc"
       transform="matrix(1.000000,0.000000,0.000000,0.352130,227.2462,155.4645)" />
    <path
       style="font-size:12;fill:#dec0aa;fill-rule:evenodd;stroke-width:1pt;"
       d="M 56.9111 203.681 C 55.4511 212.61 62.3675 225.022 63.4009 226.646 C 65.0251 227.574 71.7394 226.928 73.3853 226.147 C 74.5805 222.893 82.3713 214.396 80.8736 203.682 C 76.3806 194.324 59.637 197.101 56.9111 203.681 z "
       id="path559"
       sodipodi:nodetypes="ccccc"
       transform="matrix(1.000000,0.000000,0.000000,0.972683,207.7766,20.53641)" />
    <path
       style="font-size:12;fill:#5c4918;fill-rule:evenodd;stroke-width:1pt;"
       d="M 65.897 198.69 C 55.9761 199.594 50.0182 206.143 48.9236 207.676 C 48.0013 210.664 49.2988 210.821 51.4197 211.669 C 53.7493 211.669 56.079 211.669 58.4087 211.669 C 60.4242 211.231 62.0114 210.632 64.3994 210.172 C 65.7235 209.024 67.316 208.481 69.8908 208.175 C 70.2535 210.582 71.2287 211.19 71.8877 213.167 C 74.605 213.167 74.8328 213.432 74.883 210.671 C 74.7776 207.825 73.9969 207.14 72.8861 205.179 C 70.9668 202.978 74.0391 200.249 65.897 198.69 z "
       id="path561"
       transform="matrix(1.000000,0.000000,0.000000,0.972683,214.2664,16.65175)"
       sodipodi:nodetypes="cccccccccc" />
  </g>
  <g
     id="g646"
     transform="translate(0.000000,1.295547)">
    <rect
       style="font-size:12;fill:#fcfaff;fill-rule:evenodd;stroke-width:1pt;"
       id="rect552"
       width="111.888744"
       height="77.500365"
       x="54.194011"
       y="48.396727"
       transform="translate(-13.69036,-7.405815)" />
    <rect
       style="font-size:12;fill:#6bd3e9;fill-rule:evenodd;stroke-width:1pt;fill-opacity:1;"
       id="rect551"
       width="98.933205"
       height="68.526642"
       x="47.360403"
       y="45.341785" />
    <path
       style="font-size:12;fill:#fff6c9;fill-rule:evenodd;stroke-width:1pt;"
       d="M 71.2551 187.854 L 71.2551 207.287 L 91.552 207.288 L 71.2551 187.854 z "
       id="path562"
       sodipodi:nodetypes="cccc"
       transform="matrix(-1.000000,0.000000,0.000000,1.000000,229.4406,-81.97117)" />
    <path
       style="font-size:12;fill:#fff6c9;fill-rule:evenodd;stroke-width:1pt;"
       d="M 71.2551 187.854 L 71.2551 207.287 L 91.552 207.288 L 71.2551 187.854 z "
       id="path564"
       sodipodi:nodetypes="cccc"
       transform="matrix(-6.124136e-17,1.000000,1.000180,6.123032e-17,-49.13676,-35.73079)" />
    <path
       style="font-size:12;fill:#fff6c9;fill-rule:evenodd;stroke-width:1pt;"
       d="M 71.2551 187.854 L 71.2551 207.287 L 91.552 207.288 L 71.2551 187.854 z "
       id="path566"
       sodipodi:nodetypes="cccc"
       transform="matrix(6.124135e-17,1.000000,-1.000180,6.123032e-17,242.0009,-36.07154)" />
    <path
       style="font-size:12;fill:#fff6c9;fill-rule:evenodd;stroke-width:1pt;"
       d="M 71.2551 187.854 L 71.2551 207.287 L 91.552 207.288 L 71.2551 187.854 z "
       id="path563"
       sodipodi:nodetypes="cccc"
       transform="translate(-37.49270,-81.97117)" />
    <path
       style="fill:url(#linearGradient558);fill-rule:evenodd;stroke:none;stroke-opacity:1;stroke-width:1pt;stroke-linejoin:miter;stroke-linecap:butt;fill-opacity:1;"
       d="M 47.0715 114.44 C 47.5146 114.44 144.814 114.008 146.397 114.008 C 146.397 107.53 146.397 74.1341 146.397 71.2551 C 145.912 73.1161 139.794 72.1215 136.464 74.7098 C 133.337 76.7219 129.635 77.7389 126.532 79.4601 C 120.582 81.1166 114.119 82.8536 107.962 84.6423 C 102.141 85.5676 96.688 86.3697 90.6883 86.3697 C 86.2258 86.3697 81.7634 86.3697 77.3009 86.3697 C 73.6248 85.8163 69.7136 85.7409 66.0729 85.506 C 63.9402 85.0795 61.8489 85.0742 59.5951 85.0742 C 57.2271 85.4088 56.203 86.3909 53.5493 86.8016 C 51.4785 86.9495 48.7582 89.9549 47.5034 91.1201 C 46.9303 93.4643 47.2558 111.676 47.0715 114.44 z "
       id="path629"
       sodipodi:nodetypes="ccccccccccccc" />
    <g
       id="g616"
       transform="matrix(0.564322,0.000000,0.000000,0.573336,48.00647,38.40641)">
      <defs
         id="defs3">
        <linearGradient
           id="linearGradient126"
           x1="0.000000"
           y1="0.000000"
           x2="1.000000"
           y2="0.000000"
           xlink:href="#linearGradient674" />
        <linearGradient
           xlink:href="#linearGradient126"
           id="linearGradient129" />
      </defs>
      <sodipodi:namedview
         id="namedview622" />
      <g
         id="g134"
         transform="translate(5.04732,12.1136)">
        <path
           style="font-size:12;fill:none;fill-rule:evenodd;stroke:#000000;stroke-width:6.25;stroke-dasharray:none;stroke-linecap:round;"
           d="M 64.1009 60.5678 C 64.2633 60.7417 73.2796 67.7859 64.588 61.0896 C 62.8645 59.2432 116.519 106.815 120.461 110.486 "
           id="path133"
           sodipodi:nodetypes="ccc" />
        <path
           style="fill:#ff0000;fill-rule:evenodd;stroke:none;stroke-opacity:1;stroke-width:1pt;stroke-linejoin:miter;stroke-linecap:butt;fill-opacity:1;"
           d="M 35.3674 25.4999 C 15.1405 42.3756 2.81817 70.384 8.21947 99.3101 C 9.81384 107.596 32.5052 88.2742 47.8608 74.5465 C 54.9122 68.0108 39.9971 21.2161 35.3674 25.4999 z "
           id="path125"
           sodipodi:nodetypes="csss" />
        <path
           style="fill:#0000ff;fill-rule:evenodd;stroke:none;stroke-opacity:1;stroke-width:1pt;stroke-linejoin:miter;stroke-linecap:butt;fill-opacity:1;"
           d="M 103.47 11.6081 C 80.8952 0.252047 53.6743 8.10012 35.8721 24.9952 C 34.3289 26.416 79.695 43.9056 82.6871 40.2249 C 95.4048 25.0852 105.363 16.3221 103.47 11.6081 z "
           id="path131"
           sodipodi:nodetypes="cssc" />
        <path
           style="fill:#ffff00;fill-rule:evenodd;stroke:none;stroke-opacity:1;stroke-width:1pt;stroke-linejoin:miter;stroke-linecap:butt;fill-opacity:1;"
           d="M 81.7668 39.3683 C 64.239 29.0218 41.6216 19.3881 35.8721 24.4905 C 28.7319 30.2002 32.5974 60.7941 36.9892 78.6161 C 38.9557 86.8218 48.5989 74.4344 59.9742 63.9473 C 72.1259 53.2491 83.6593 44.0823 81.7668 39.3683 z "
           id="path130"
           sodipodi:nodetypes="csssc" />
        <path
           style="fill:none;fill-rule:evenodd;stroke:black;stroke-opacity:1;stroke-width:6.25;stroke-linejoin:miter;stroke-linecap:butt;fill-opacity:1;stroke-dasharray:none;"
           d="M 103.975 11.6081 C 58.8249 -11.1039 -3.08787 41.9627 7.71476 99.8148 C 10.9034 116.387 107.76 21.036 103.975 11.6081 z "
           id="path124"
           sodipodi:nodetypes="csc" />
      </g>
    </g>
  </g>
  <g
     id="g696"
     transform="translate(3.886642,-4.750328)">
    <rect
       style="font-size:12;fill:#f6fee2;fill-rule:evenodd;stroke-width:1pt;fill-opacity:1;"
       id="rect677"
       width="57.435902"
       height="31.093124"
       x="42.321186"
       y="176.626175" />
    <path
       style="font-size:12;fill:none;fill-rule:evenodd;stroke:#0000a1;stroke-width:1pt;stroke-opacity:1;"
       d="M 46.6397 182.24 C 46.6397 182.73 46.0136 182.05 48.7989 183.536 C 50.5726 182.528 51.7466 182.026 53.1174 181.377 C 53.4834 183.426 53.6304 184.948 54.8448 186.127 C 57.51 185.698 59.1214 183.982 61.3225 182.672 C 62.0162 184.223 62.9556 186.421 63.9136 187.422 C 66.2229 186.308 68.1197 184.238 69.9595 182.672 C 71.1383 182.219 70.9417 183.221 72.1188 184.831 C 73.2476 186.855 73.8961 187.469 76.0054 186.127 C 77.2278 185.328 78.5466 184.35 79.4602 185.263 C 80.6685 187.131 80.8144 187.551 82.0513 185.263 C 83.9714 183.398 84.386 183.277 85.9379 185.263 C 87.3131 185.978 88.0261 186.817 88.0972 184.399 L 85.9379 185.263 C 87.3131 185.978 88.0261 186.817 88.0972 184.399 M 47.9352 193.036 C 47.9352 194.853 46.9328 188.503 48.3671 195.196 C 47.7832 192.276 47.2537 193.309 50.0945 192.173 C 50.951 190.704 50.7987 192.286 51.39 193.468 C 51.6707 194.431 52.1312 196.182 53.1174 195.196 C 54.7191 194.023 56.3076 192.216 57.8677 191.741 C 58.0067 193.409 58.0354 195.157 59.1633 196.059 C 60.0135 194.942 61.6607 193.055 62.6181 192.173 C 63.8059 193.462 65.0574 195.71 66.0729 196.491 C 66.572 195.425 67.5203 193.063 68.2321 192.173 C 69.0278 194.162 68.952 194.119 70.8232 192.173 C 72.2902 190.412 73.0903 192.467 74.278 193.9 C 75.5928 194.886 76.8237 193.831 78.1646 192.605 C 80.4 191.966 80.0854 192.328 81.1876 194.332 C 82.3487 196.859 82.6186 197.645 85.0742 195.628 C 86.7327 194.748 88.8346 193.005 90.2564 192.173 C 90.8805 192.901 91.3597 194.899 91.9838 195.628 C 92.8187 195.031 93.6873 194.147 94.5749 193.468 M 49.6626 200.81 C 49.6626 200.954 49.6626 201.098 49.6626 201.242 C 49.6626 200.035 49.5289 200.863 51.8219 199.946 C 52.169 201.979 52.3615 203.633 54.413 202.969 C 55.8504 201.947 57.2837 200.773 58.7314 199.946 C 59.7172 201.988 59.5539 203.598 61.7544 202.969 C 63.7911 202.361 65.5251 201.095 67.3684 200.378 C 68.0487 201.713 69.4771 204.257 70.3914 205.128 C 71.9173 204.235 72.6636 202.786 73.8462 204.265 C 75.1277 204.722 75.7153 203.679 76.8691 202.105 C 78.382 201.076 79.3407 199.684 80.3239 200.378 C 81.617 202.41 82.3838 203.139 83.7787 201.242 C 85.9215 201.609 85.6243 201.656 87.2335 199.946 C 88.8032 199.533 88.6962 199.909 88.9609 201.673 C 89.2806 202.953 89.9551 202.688 91.1201 202.105 "
       id="path695"
       transform="" />
  </g>
  <g
     id="g708">
    <rect
       style="font-size:12;fill:#f6fee2;fill-rule:evenodd;stroke-width:1pt;"
       id="rect700"
       width="57.435902"
       height="31.093124"
       x="42.321186"
       y="176.626175"
       transform="matrix(0.744361,0.000000,0.000000,1.527778,129.5774,-231.4110)" />
    <path
       style="font-size:12;fill:none;fill-rule:evenodd;stroke:#0000a1;stroke-width:1pt;"
       d="M 164.294 46.7132 C 164.294 47.2926 163.828 46.4886 165.901 48.2455 C 167.222 47.0537 168.096 46.4602 169.116 45.6929 C 169.388 48.1154 169.498 49.9149 170.402 51.3089 C 172.386 50.8017 173.585 48.7728 175.223 47.224 C 175.74 49.0577 176.439 51.6565 177.152 52.84 C 178.871 51.5229 180.283 49.0755 181.653 47.224 C 182.53 46.6884 182.384 47.8731 183.26 49.7766 C 184.1 52.1696 184.583 52.8955 186.153 51.3089 C 187.063 50.3642 188.044 49.2079 188.724 50.2874 C 189.624 52.4959 189.732 52.9925 190.653 50.2874 C 192.082 48.0823 192.391 47.9393 193.546 50.2874 C 194.57 51.1327 195.101 52.1247 195.154 49.2658 L 193.546 50.2874 C 194.57 51.1327 195.101 52.1247 195.154 49.2658 M 165.258 59.4775 C 165.258 61.6257 164.512 54.118 165.58 62.0313 C 165.145 58.5789 164.751 59.8002 166.866 58.4571 C 167.503 56.7203 167.39 58.5907 167.83 59.9882 C 168.039 61.1268 168.382 63.197 169.116 62.0313 C 170.308 60.6444 171.491 58.508 172.652 57.9464 C 172.755 59.9185 172.777 61.9852 173.616 63.0516 C 174.249 61.731 175.475 59.4999 176.188 58.4571 C 177.072 59.9811 178.004 62.639 178.759 63.5624 C 179.131 62.302 179.837 59.5094 180.367 58.4571 C 180.959 60.8088 180.903 60.7579 182.295 58.4571 C 183.387 56.3751 183.983 58.8047 184.867 60.499 C 185.846 61.6647 186.762 60.4174 187.76 58.9679 C 189.424 58.2124 189.19 58.6404 190.01 61.0097 C 190.875 63.9975 191.075 64.9268 192.903 62.542 C 194.138 61.5016 195.702 59.4408 196.761 58.4571 C 197.225 59.3179 197.582 61.6801 198.047 62.542 C 198.668 61.8362 199.315 60.791 199.975 59.9882 M 166.544 68.6688 C 166.544 68.839 166.544 69.0093 166.544 69.1795 C 166.544 67.7525 166.445 68.7314 168.152 67.6473 C 168.41 70.0509 168.553 72.0064 170.08 71.2214 C 171.15 70.0131 172.217 68.625 173.295 67.6473 C 174.029 70.0615 173.907 71.9651 175.545 71.2214 C 177.061 70.5025 178.352 69.0057 179.724 68.158 C 180.23 69.7364 181.293 72.7442 181.974 73.774 C 183.11 72.7182 183.665 71.005 184.546 72.7537 C 185.5 73.294 185.937 72.0608 186.796 70.1999 C 187.922 68.9833 188.636 67.3375 189.367 68.158 C 190.33 70.5605 190.901 71.4224 191.939 69.1795 C 193.534 69.6134 193.313 69.669 194.511 67.6473 C 195.679 67.159 195.599 67.6035 195.796 69.6891 C 196.034 71.2025 196.536 70.8892 197.404 70.1999 M 165.83 79.892 C 165.974 79.7481 166.118 79.6041 166.262 79.4602 C 165.178 80.5438 165.703 80.0512 167.557 77.7328 C 168.429 76.8609 169.207 76.0547 169.717 76.4372 C 170.173 77.9594 169.725 79.9449 170.148 80.7557 C 171.769 79.7964 172.498 78.9331 174.035 78.1646 C 175.056 79.9519 175.601 80.2863 177.922 79.4602 C 178.682 80.0819 179.113 81.0098 180.081 79.4602 C 182.248 78.5797 181.328 78.6282 182.24 80.7557 C 183.06 81.4588 183.69 78.9432 184.399 77.7328 C 185.508 76.4664 185.263 77.5854 185.263 79.0283 C 185.429 80.689 185.621 82.0807 186.559 79.892 C 187.878 79.0479 188.12 79.2979 190.014 79.4602 C 190.74 79.1595 192.124 79.936 193.9 79.4602 C 194.469 78.8914 194.519 80.5356 195.628 81.1876 C 195.86 80.4121 196.259 79.8038 196.491 79.0283 "
       id="path707" />
  </g>
</svg>
