<?xml version="1.0" encoding="UTF-8" standalone="no"?>
<!DOCTYPE svg PUBLIC "-//W3C//DTD SVG 20010904//EN"
"http://www.w3.org/TR/2001/REC-SVG-20010904/DTD/svg10.dtd">
<!-- Created with Sodipodi ("http://www.sodipodi.com/") -->
<svg
   id="svg548"
   sodipodi:version="0.32"
   width="256pt"
   height="256pt"
   sodipodi:docbase="/home/will/Documents/kde_stuff"
   sodipodi:docname="/home/will/Documents/kde_stuff/kimdaba_sm.svg"
   xmlns="http://www.w3.org/2000/svg"
   xmlns:sodipodi="http://sodipodi.sourceforge.net/DTD/sodipodi-0.dtd"
   xmlns:xlink="http://www.w3.org/1999/xlink">
  <defs
     id="defs550">
    <linearGradient
       id="linearGradient674">
      <stop
         offset="0.000000"
         style="stop-color:#00b705;stop-opacity:1;"
         id="stop676" />
      <stop
         offset="1.000000"
         style="stop-color:#a7ff5d;stop-opacity:1;"
         id="stop675" />
    </linearGradient>
    <linearGradient
       id="linearGradient630">
      <stop
         style="stop-color:#eecd00;stop-opacity:1;"
         offset="0.000000"
         id="stop631" />
      <stop
         style="stop-color:#ffffff;stop-opacity:1;"
         offset="1.000000"
         id="stop632" />
    </linearGradient>
    <linearGradient
       id="linearGradient555">
      <stop
         style="stop-color:#001d1d;stop-opacity:1;"
         offset="0.000000"
         id="stop556" />
      <stop
         style="stop-color:#5f5d5f;stop-opacity:1;"
         offset="1.000000"
         id="stop557" />
    </linearGradient>
    <linearGradient
       xlink:href="#linearGradient630"
       id="linearGradient558"
       x1="0.83908045"
       y1="1.00000000"
       x2="0.49808428"
       y2="0.26315802"
       gradientUnits="objectBoundingBox"
       spreadMethod="pad" />
    <linearGradient
       xlink:href="#linearGradient674"
       id="linearGradient673"
       x1="0.50322872"
       y1="0.03124820"
       x2="0.50322574"
       y2="0.96875024"
       gradientUnits="objectBoundingBox"
       spreadMethod="pad" />
    <radialGradient
       xlink:href="#linearGradient674"
       id="radialGradient711" />
    <linearGradient
       xlink:href="#linearGradient555"
       id="linearGradient712"
       x1="0.13953513"
       y1="0.04687494"
       x2="0.75193799"
       y2="1.02343750"
       gradientUnits="objectBoundingBox"
       spreadMethod="pad" />
  </defs>
  <sodipodi:namedview
     id="base"
     showgrid="true"
     snaptogrid="false" />
  <rect
     style="font-size:12;fill:url(#linearGradient712);fill-rule:evenodd;stroke-width:1pt;fill-opacity:1;stroke:none;"
     id="rect567"
     width="185.694992"
     height="185.694992"
     x="26.903433"
     y="28.005791" />
  <path
     style="fill:#acacac;fill-rule:evenodd;stroke:none;stroke-opacity:1;stroke-width:1pt;stroke-linejoin:miter;stroke-linecap:butt;fill-opacity:1;"
     d="M 26.7946 213.701 L 44.9431 231.417 L 230.319 231.417 L 212.598 213.701 L 26.7946 213.701 z "
     id="path614"
     sodipodi:nodetypes="ccccc"
     transform="matrix(0.999778,0.000000,0.000000,1.000006,4.723946e-2,-1.487732e-3)" />
  <path
     style="fill:#eeeeee;fill-rule:evenodd;stroke:none;stroke-opacity:1;stroke-width:1pt;stroke-linejoin:miter;stroke-linecap:butt;fill-opacity:1;"
     d="M 26.7946 213.701 L 46.2389 231.417 L 230.32 231.417 L 212.598 213.701 L 26.7946 213.701 z "
     id="path615"
     sodipodi:nodetypes="ccccc"
     transform="matrix(-6.121673e-17,0.999778,1.000006,6.123068e-17,-1.103859,1.148930)" />
  <g
     id="g646"
     transform="matrix(1.368559,0.000000,0.000000,1.368559,-9.148214,-8.376465)">
    <rect
       style="font-size:12;fill:#fcfaff;fill-rule:evenodd;stroke-width:1pt;"
       id="rect552"
       width="111.888744"
       height="77.500365"
       x="54.194011"
       y="48.396727"
       transform="translate(-13.69036,-7.405815)" />
    <rect
       style="font-size:12;fill:#6bd3e9;fill-rule:evenodd;stroke-width:1pt;fill-opacity:1;"
       id="rect551"
       width="98.933205"
       height="68.526642"
       x="47.360403"
       y="45.341785" />
    <path
       style="font-size:12;fill:#fff6c9;fill-rule:evenodd;stroke-width:1pt;"
       d="M 71.2551 187.854 L 71.2551 207.287 L 91.552 207.288 L 71.2551 187.854 z "
       id="path562"
       sodipodi:nodetypes="cccc"
       transform="matrix(-1.000000,0.000000,0.000000,1.000000,229.4406,-81.97117)" />
    <path
       style="font-size:12;fill:#fff6c9;fill-rule:evenodd;stroke-width:1pt;"
       d="M 71.2551 187.854 L 71.2551 207.287 L 91.552 207.288 L 71.2551 187.854 z "
       id="path564"
       sodipodi:nodetypes="cccc"
       transform="matrix(-6.124136e-17,1.000000,1.000180,6.123032e-17,-49.13676,-35.73079)" />
    <path
       style="font-size:12;fill:#fff6c9;fill-rule:evenodd;stroke-width:1pt;"
       d="M 71.2551 187.854 L 71.2551 207.287 L 91.552 207.288 L 71.2551 187.854 z "
       id="path566"
       sodipodi:nodetypes="cccc"
       transform="matrix(6.124135e-17,1.000000,-1.000180,6.123032e-17,242.0009,-36.07154)" />
    <path
       style="font-size:12;fill:#fff6c9;fill-rule:evenodd;stroke-width:1pt;"
       d="M 71.2551 187.854 L 71.2551 207.287 L 91.552 207.288 L 71.2551 187.854 z "
       id="path563"
       sodipodi:nodetypes="cccc"
       transform="translate(-37.49270,-81.97117)" />
    <path
       style="fill:url(#linearGradient558);fill-rule:evenodd;stroke:none;stroke-opacity:1;stroke-width:1pt;stroke-linejoin:miter;stroke-linecap:butt;fill-opacity:1;"
       d="M 47.0715 114.44 C 47.5146 114.44 144.814 114.008 146.397 114.008 C 146.397 107.53 146.397 74.1341 146.397 71.2551 C 145.912 73.1161 139.794 72.1215 136.464 74.7098 C 133.337 76.7219 129.635 77.7389 126.532 79.4601 C 120.582 81.1166 114.119 82.8536 107.962 84.6423 C 102.141 85.5676 96.688 86.3697 90.6883 86.3697 C 86.2258 86.3697 81.7634 86.3697 77.3009 86.3697 C 73.6248 85.8163 69.7136 85.7409 66.0729 85.506 C 63.9402 85.0795 61.8489 85.0742 59.5951 85.0742 C 57.2271 85.4088 56.203 86.3909 53.5493 86.8016 C 51.4785 86.9495 48.7582 89.9549 47.5034 91.1201 C 46.9303 93.4643 47.2558 111.676 47.0715 114.44 z "
       id="path629"
       sodipodi:nodetypes="ccccccccccccc" />
    <g
       id="g616"
       transform="matrix(0.564322,0.000000,0.000000,0.573336,48.00647,38.40641)">
      <defs
         id="defs3">
        <linearGradient
           id="linearGradient126"
           x1="0.000000"
           y1="0.000000"
           x2="1.000000"
           y2="0.000000"
           xlink:href="#linearGradient674" />
        <linearGradient
           xlink:href="#linearGradient126"
           id="linearGradient129" />
      </defs>
      <sodipodi:namedview
         id="namedview622" />
      <g
         id="g134"
         transform="translate(5.04732,12.1136)">
        <path
           style="font-size:12;fill:none;fill-rule:evenodd;stroke:#000000;stroke-width:6.25;stroke-dasharray:none;stroke-linecap:round;"
           d="M 64.1009 60.5678 C 64.2633 60.7417 73.2796 67.7859 64.588 61.0896 C 62.8645 59.2432 116.519 106.815 120.461 110.486 "
           id="path133"
           sodipodi:nodetypes="ccc" />
        <path
           style="fill:#ff0000;fill-rule:evenodd;stroke:none;stroke-opacity:1;stroke-width:1pt;stroke-linejoin:miter;stroke-linecap:butt;fill-opacity:1;"
           d="M 35.3674 25.4999 C 15.1405 42.3756 2.81817 70.384 8.21947 99.3101 C 9.81384 107.596 32.5052 88.2742 47.8608 74.5465 C 54.9122 68.0108 39.9971 21.2161 35.3674 25.4999 z "
           id="path125"
           sodipodi:nodetypes="csss" />
        <path
           style="fill:#0000ff;fill-rule:evenodd;stroke:none;stroke-opacity:1;stroke-width:1pt;stroke-linejoin:miter;stroke-linecap:butt;fill-opacity:1;"
           d="M 103.47 11.6081 C 80.8952 0.252047 53.6743 8.10012 35.8721 24.9952 C 34.3289 26.416 79.695 43.9056 82.6871 40.2249 C 95.4048 25.0852 105.363 16.3221 103.47 11.6081 z "
           id="path131"
           sodipodi:nodetypes="cssc" />
        <path
           style="fill:#ffff00;fill-rule:evenodd;stroke:none;stroke-opacity:1;stroke-width:1pt;stroke-linejoin:miter;stroke-linecap:butt;fill-opacity:1;"
           d="M 81.7668 39.3683 C 64.239 29.0218 41.6216 19.3881 35.8721 24.4905 C 28.7319 30.2002 32.5974 60.7941 36.9892 78.6161 C 38.9557 86.8218 48.5989 74.4344 59.9742 63.9473 C 72.1259 53.2491 83.6593 44.0823 81.7668 39.3683 z "
           id="path130"
           sodipodi:nodetypes="csssc" />
        <path
           style="fill:none;fill-rule:evenodd;stroke:black;stroke-opacity:1;stroke-width:6.25;stroke-linejoin:miter;stroke-linecap:butt;fill-opacity:1;stroke-dasharray:none;"
           d="M 103.975 11.6081 C 58.8249 -11.1039 -3.08787 41.9627 7.71476 99.8148 C 10.9034 116.387 107.76 21.036 103.975 11.6081 z "
           id="path124"
           sodipodi:nodetypes="csc" />
      </g>
    </g>
  </g>
  <g
     id="g708"
     transform="matrix(2.425895,0.000000,0.000000,1.000000,-319.7519,120.8244)">
    <rect
       style="font-size:12;fill:#f6fee2;fill-rule:evenodd;stroke-width:1pt;"
       id="rect700"
       width="57.435902"
       height="31.093124"
       x="42.321186"
       y="176.626175"
       transform="matrix(0.744361,0.000000,0.000000,1.527778,129.5774,-231.4110)" />
    <path
       style="font-size:12;fill:none;fill-rule:evenodd;stroke:#0000a1;stroke-width:1pt;"
       d="M 164.294 46.7132 C 164.294 47.2926 163.828 46.4886 165.901 48.2455 C 167.222 47.0537 168.096 46.4602 169.116 45.6929 C 169.388 48.1154 169.498 49.9149 170.402 51.3089 C 172.386 50.8017 173.585 48.7728 175.223 47.224 C 175.74 49.0577 176.439 51.6565 177.152 52.84 C 178.871 51.5229 180.283 49.0755 181.653 47.224 C 182.53 46.6884 182.384 47.8731 183.26 49.7766 C 184.1 52.1696 184.583 52.8955 186.153 51.3089 C 187.063 50.3642 188.044 49.2079 188.724 50.2874 C 189.624 52.4959 189.732 52.9925 190.653 50.2874 C 192.082 48.0823 192.391 47.9393 193.546 50.2874 C 194.57 51.1327 195.101 52.1247 195.154 49.2658 L 193.546 50.2874 C 194.57 51.1327 195.101 52.1247 195.154 49.2658 M 165.258 59.4775 C 165.258 61.6257 164.512 54.118 165.58 62.0313 C 165.145 58.5789 164.751 59.8002 166.866 58.4571 C 167.503 56.7203 167.39 58.5907 167.83 59.9882 C 168.039 61.1268 168.382 63.197 169.116 62.0313 C 170.308 60.6444 171.491 58.508 172.652 57.9464 C 172.755 59.9185 172.777 61.9852 173.616 63.0516 C 174.249 61.731 175.475 59.4999 176.188 58.4571 C 177.072 59.9811 178.004 62.639 178.759 63.5624 C 179.131 62.302 179.837 59.5094 180.367 58.4571 C 180.959 60.8088 180.903 60.7579 182.295 58.4571 C 183.387 56.3751 183.983 58.8047 184.867 60.499 C 185.846 61.6647 186.762 60.4174 187.76 58.9679 C 189.424 58.2124 189.19 58.6404 190.01 61.0097 C 190.875 63.9975 191.075 64.9268 192.903 62.542 C 194.138 61.5016 195.702 59.4408 196.761 58.4571 C 197.225 59.3179 197.582 61.6801 198.047 62.542 C 198.668 61.8362 199.315 60.791 199.975 59.9882 M 166.544 68.6688 C 166.544 68.839 166.544 69.0093 166.544 69.1795 C 166.544 67.7525 166.445 68.7314 168.152 67.6473 C 168.41 70.0509 168.553 72.0064 170.08 71.2214 C 171.15 70.0131 172.217 68.625 173.295 67.6473 C 174.029 70.0615 173.907 71.9651 175.545 71.2214 C 177.061 70.5025 178.352 69.0057 179.724 68.158 C 180.23 69.7364 181.293 72.7442 181.974 73.774 C 183.11 72.7182 183.665 71.005 184.546 72.7537 C 185.5 73.294 185.937 72.0608 186.796 70.1999 C 187.922 68.9833 188.636 67.3375 189.367 68.158 C 190.33 70.5605 190.901 71.4224 191.939 69.1795 C 193.534 69.6134 193.313 69.669 194.511 67.6473 C 195.679 67.159 195.599 67.6035 195.796 69.6891 C 196.034 71.2025 196.536 70.8892 197.404 70.1999 M 165.83 79.892 C 165.974 79.7481 166.118 79.6041 166.262 79.4602 C 165.178 80.5438 165.703 80.0512 167.557 77.7328 C 168.429 76.8609 169.207 76.0547 169.717 76.4372 C 170.173 77.9594 169.725 79.9449 170.148 80.7557 C 171.769 79.7964 172.498 78.9331 174.035 78.1646 C 175.056 79.9519 175.601 80.2863 177.922 79.4602 C 178.682 80.0819 179.113 81.0098 180.081 79.4602 C 182.248 78.5797 181.328 78.6282 182.24 80.7557 C 183.06 81.4588 183.69 78.9432 184.399 77.7328 C 185.508 76.4664 185.263 77.5854 185.263 79.0283 C 185.429 80.689 185.621 82.0807 186.559 79.892 C 187.878 79.0479 188.12 79.2979 190.014 79.4602 C 190.74 79.1595 192.124 79.936 193.9 79.4602 C 194.469 78.8914 194.519 80.5356 195.628 81.1876 C 195.86 80.4121 196.259 79.8038 196.491 79.0283 "
       id="path707" />
  </g>
</svg>
